<?xml version="1.0" standalone="no"?><!DOCTYPE svg PUBLIC "-//W3C//DTD SVG 1.1//EN" "http://www.w3.org/Graphics/SVG/1.1/DTD/svg11.dtd"><svg t="1555657033978" class="icon" style="" viewBox="0 0 1024 1024" version="1.1" xmlns="http://www.w3.org/2000/svg" p-id="3861" xmlns:xlink="http://www.w3.org/1999/xlink" width="200" height="200"><defs><style type="text/css"></style></defs><path d="M875.21179 275.349185c31.30396-30.41266 28.076452-76.580143-7.176446-102.595656 0 0-96.182596-106.244766-282.235013-106.244766-253.249865 0-458.536344 199.448518-458.536344 445.503517 0 246.0243 205.28648 445.478957 458.536344 445.478957 169.954787 0 271.28666-97.111758 271.28666-97.111758 35.871999-25.188682 40.517809-71.526033 10.310833-102.966093L686.55506 569.177234c-30.204929-31.446199-29.309536-82.053808 1.99647-112.467491L875.21179 275.349185zM552.217469 269.174556c0-44.675502 36.328393-80.869842 81.116459-80.869842 44.841278 0 81.143065 36.19434 81.143065 80.869842 0 44.669362-36.301787 80.882122-81.143065 80.882122C588.545862 350.056678 552.217469 313.843918 552.217469 269.174556z" p-id="3862" fill="#ffffff"></path></svg>