<?xml version="1.0" standalone="no"?><!DOCTYPE svg PUBLIC "-//W3C//DTD SVG 1.1//EN" "http://www.w3.org/Graphics/SVG/1.1/DTD/svg11.dtd"><svg t="1555657200076" class="icon" style="" viewBox="0 0 1024 1024" version="1.1" xmlns="http://www.w3.org/2000/svg" p-id="7504" xmlns:xlink="http://www.w3.org/1999/xlink" width="200" height="200"><defs><style type="text/css"></style></defs><path d="M102.4 76.8a25.6 25.6 0 0 0-25.6 25.6v819.2a25.6 25.6 0 0 0 25.6 25.6h819.2a25.6 25.6 0 0 0 25.6-25.6V102.4a25.6 25.6 0 0 0-25.6-25.6H102.4zM102.4 0h819.2a102.4 102.4 0 0 1 102.4 102.4v819.2a102.4 102.4 0 0 1-102.4 102.4H102.4a102.4 102.4 0 0 1-102.4-102.4V102.4a102.4 102.4 0 0 1 102.4-102.4z" fill="#ffffff" p-id="7505"></path><path d="M245.248 478.3104a38.4 38.4 0 1 1 47.104-60.6208L460.8 548.864a51.2 51.2 0 0 1-0.512 81.152l-168.2432 127.8976a38.4 38.4 0 0 1-46.4896-61.1328l141.824-107.776-142.1824-110.6432z" fill="#ffffff" p-id="7506"></path><path d="M503.1936 816.64a38.4 38.4 0 0 1 0-76.8h128a38.4 38.4 0 1 1 0 76.8h-128z" fill="#ffffff" p-id="7507"></path></svg>