<?xml version="1.0" standalone="no"?><!DOCTYPE svg PUBLIC "-//W3C//DTD SVG 1.1//EN" "http://www.w3.org/Graphics/SVG/1.1/DTD/svg11.dtd"><svg t="1555656961198" class="icon" style="" viewBox="0 0 1024 1024" version="1.1" xmlns="http://www.w3.org/2000/svg" p-id="3020" xmlns:xlink="http://www.w3.org/1999/xlink" width="200" height="200"><defs><style type="text/css"></style></defs><path d="M873.8 207.8c9.3 3.2 19.2 4.8 29.2 4.8 28.7 0 52-23.3 52-52 0-3.3-0.3-6.5-0.9-9.6 3-1.1 6-2.5 8.7-4.1 24.7-14.6 32.8-46.6 18.2-71.2-16.3-27.5-46.2-44.5-78.1-44.5-50 0-90.7 40.7-90.7 90.7 0 13.9 3.2 27.4 9.2 39.7-6.5-5.8-13.2-11.4-20-16.7-2.4-1.9-5.2-3.2-8.1-3.9-6.5-2.8-13.5-4.2-20.5-4.2-28.7 0-52 23.3-52 52 0 17.2 8.6 33.3 22.7 42.9 0.1 0.1 0.3 0.2 0.4 0.3 36.4 30.3 67.3 68.2 89.3 109.6 5.4 10.2 10.4 20.8 14.9 31.6h-348l120.3-208.4c6.3 2 12.5 4.1 18.6 6.4 0.3 0.1 0.6 0.2 0.8 0.3 7 3.4 14.8 5.2 22.6 5.2 28.7 0 52-23.3 52-52 0-16.9-8.3-32.7-21.9-42.4-1.9-1.9-4.2-3.4-6.7-4.5 0 0-1.2-0.5-1.5-0.6-54.9-21.8-112.9-32.9-172.5-32.9-63.1 0-124.4 12.4-182 36.8-55.7 23.6-105.7 57.3-148.6 100.3-42.9 43-76.7 93-100.2 148.7C56.4 387.7 44 449 44 512.2c0 63.2 12.4 124.4 36.8 182.1C104.3 750 138 800.1 181 843c42.9 43 93 76.7 148.6 100.3 57.7 24.4 118.9 36.8 182 36.8s124.4-12.4 182-36.8C749.4 919.7 799.4 886 842.4 843c42.9-43 76.7-93 100.2-148.7 24.4-57.7 36.8-119 36.8-182.1 0-109.8-38.4-215.6-108.4-299.5l2.8-4.9z m85.5 304.4c0 247.4-200.4 447.9-447.7 447.9C264.4 960.1 64 759.5 64 512.2s200.4-448 447.7-448c58.3 0 114 11.2 165.1 31.5 0.5 0.2 0.9 0.4 1.4 0.6l-0.2 0.4c9.7 5.5 16.3 15.9 16.3 27.9 0 17.7-14.3 32-32 32-6 0-11.5-1.6-16.3-4.5l-0.2 0.3c-11.5-4.3-23.2-8-35.1-11.2l-145.5 252h411.3c-6.8-21-15.5-41.4-25.9-60.9-23.4-44.1-55.7-83.6-94.1-115.6l0.1-0.2c-9.5-5.5-16-15.9-16-27.7 0-17.7 14.3-32 32-32 5.8 0 11.3 1.6 16 4.3l0.3-0.5c15.3 12.1 29.8 25.2 43.3 39.1l17.8-30.8c-11.1-12.5-17.9-28.9-17.9-47 0-39 31.7-70.7 70.7-70.7 24.9 0 48.2 13.3 60.9 34.7 9 15.2 4 34.8-11.2 43.8s-34.8 4-43.8-11.2c-0.5-0.8-2.3-3.3-5.8-3.3a6.7 6.7 0 0 0 0 13.4c17.7 0 32 14.3 32 32s-14.3 32-32 32c-13.7 0-26.5-3.9-37.3-10.7l-19.1 33c70.2 79.1 112.8 183.2 112.8 297.3z" fill="#ffffff" p-id="3021"></path><path d="M225.2 256.9c-28.1 31.5-50.6 67-67 105.9-20 47.3-30.1 97.6-30.1 149.4 0 34.4 4.5 68 13.3 100.6h289.3L225.2 256.9zM148 512.2c0-49.2 9.6-96.8 28.6-141.6 11.9-28.1 27.2-54.5 45.7-78.7l173.8 301H156.9c-5.9-26.4-8.9-53.4-8.9-80.7zM590.5 136.3c-25.7-5.4-52.1-8.1-78.8-8.1-51.8 0-102.1 10.1-149.3 30.1-45.7 19.3-86.7 47-122 82.3-0.3 0.3-0.6 0.6-0.9 1L384.6 493l205.9-356.7z m-220.3 40.5c44.8-18.9 92.4-28.6 141.5-28.6 15.8 0 31.5 1 47.1 3L384.6 453l-120-207.8c31.1-28.9 66.5-51.9 105.6-68.4zM396.1 513l57.6 99.8H569l57.6-99.8-57.6-99.8H453.7L396.1 513z m161.3-79.8l46.1 79.8-46.1 79.8h-92.1L419.2 513l46.1-79.8h92.1zM147.3 632.8c3.2 9.7 6.8 19.3 10.8 28.8 19.3 45.7 47 86.8 82.3 122.1s76.3 63 122 82.3c16.5 7 33.3 12.7 50.4 17.3l144.6-250.5H147.3z m256 226.9c-11.2-3.5-22.3-7.6-33.1-12.2-43.3-18.3-82.2-44.6-115.6-78-33.4-33.4-59.7-72.4-78-115.7-0.1-0.3-0.3-0.7-0.4-1h346.6L403.3 859.7zM433.1 888.1c25.6 5.3 51.9 8 78.6 8 51.8 0 102.1-10.1 149.3-30.1 45.6-19.3 86.7-47 121.9-82.2L638.1 533l-205 355.1z m220.1-40.6c-44.8 18.9-92.4 28.6-141.5 28.6-15.7 0-31.4-1-46.8-3L638.1 573l119.6 207.2c-30.8 28.4-65.9 51-104.5 67.3zM797.2 768.6c28.5-31.7 51.4-67.6 68-107 20-47.3 30.1-97.6 30.1-149.4 0-31.9-3.9-63.7-11.6-94.3-0.4-1.6-0.8-3.1-1.2-4.7H592l205.2 355.4z m78.1-256.4c0 49.2-9.6 96.8-28.5 141.6-12.1 28.6-27.7 55.4-46.6 79.9L626.7 433.2h240.1c5.7 25.8 8.5 52.3 8.5 79z" fill="#ffffff" p-id="3022"></path><path d="M865.6 181.9c10.8 6.8 23.6 10.7 37.3 10.7 17.7 0 32-14.3 32-32s-14.3-32-32-32a6.7 6.7 0 0 1 0-13.4c3.6 0 5.4 2.5 5.8 3.3 9 15.2 28.6 20.2 43.8 11.2 15.2-9 20.2-28.6 11.2-43.8-12.7-21.4-36-34.7-60.9-34.7-39 0-70.7 31.7-70.7 70.7 0 18 6.8 34.5 17.9 47l-17.8 30.8c-13.6-13.9-28.1-27-43.3-39.1l-0.3 0.5c-4.7-2.7-10.2-4.3-16-4.3-17.7 0-32 14.3-32 32 0 11.8 6.4 22.2 16 27.7l-0.1 0.2c38.5 32 70.7 71.5 94.1 115.6 10.4 19.5 19 39.9 25.9 60.9H465.3l145.5-252c11.8 3.2 23.5 6.9 35.1 11.2l0.2-0.3c4.8 2.8 10.3 4.5 16.3 4.5 17.7 0 32-14.3 32-32 0-12-6.6-22.4-16.3-27.9l0.2-0.4c-0.5-0.2-0.9-0.4-1.4-0.6C625.7 75.4 570 64.2 511.7 64.2 264.4 64.2 64 264.8 64 512.2s200.4 447.9 447.7 447.9c247.2 0 447.7-200.5 447.7-447.9 0-114.1-42.6-218.2-112.8-297.3l19-33zM569 413.2l57.6 99.8-57.6 99.8H453.7L396.1 513l57.6-99.8H569zM240.4 240.7c35.3-35.3 76.3-63 122-82.3 47.3-20 97.5-30.1 149.3-30.1 26.7 0 53.1 2.7 78.8 8.1L384.6 493 239.5 241.6l0.9-0.9zM128 512.2c0-51.9 10.1-102.1 30.1-149.4 16.4-38.9 39-74.4 67-105.9l205.5 355.9H141.3c-8.8-32.6-13.3-66.3-13.3-100.6z m234.4 353.7c-45.7-19.3-86.7-47-122-82.3s-62.9-76.3-82.3-122.1c-4-9.5-7.6-19.1-10.8-28.8h410.1L412.8 883.2c-17.1-4.5-34-10.3-50.4-17.3z m298.6 0c-47.3 20-97.5 30.1-149.3 30.1-26.7 0-52.9-2.7-78.6-8l205-355.1 144.8 250.7c-35.3 35.4-76.3 63-121.9 82.3z m222.7-448c7.7 30.6 11.6 62.4 11.6 94.3 0 51.9-10.1 102.1-30.1 149.4-16.6 39.3-39.5 75.2-68 107L592 413.2h290.4c0.5 1.5 0.9 3.1 1.3 4.7z" fill="#ffffff" p-id="3023"></path></svg>